******************************************************************************************************************	

															

															

This is from a SD broadcast.												

															

															

													 

******************************************************************************************************************	

															

															

															

															

										

OSU_VS_Iowa_First_Half_480p_20110119_TTL.avi
Format                           : AVI
Format/Info                      : Audio Video Interleave
File size                        : 617 MiB
Duration                         : 27mn 51s
Overall bit rate                 : 3 099 Kbps
Movie name                       : OSU_VS_Iowa_First_Half_20110119.mpg
Director                         : created.with.SUPER(C).v2009.bld.35
Writing application              : SUPER(C)   

Video
ID                               : 0
Format                           : MPEG-4 Visual
Format profile                   : Simple@L3
Format settings, BVOP            : No
Format settings, QPel            : No
Format settings, GMC             : No warppoints
Format settings, Matrix          : Default (H.263)
Codec ID                         : XVID
Codec ID/Hint                    : XviD
Duration                         : 27mn 51s
Bit rate                         : 3 025 Kbps
Width                            : 624 pixels
Height                           : 352 pixels
Display aspect ratio             : 16:9
Frame rate                       : 23.976 fps
Color space                      : YUV
Chroma subsampling               : 4:2:0
Bit depth                        : 8 bits
Scan type                        : Progressive
Bits/(Pixel*Frame)               : 0.574
Stream size                      : 603 MiB (98%)
Writing library                  : XviD 1.1.2 (UTC 2006-11-01)

Audio
ID                               : 1
Format                           : MPEG Audio
Format version                   : Version 1
Format profile                   : Layer 3
Mode                             : Joint stereo
Mode extension                   : MS Stereo
Codec ID                         : 55
Codec ID/Hint                    : MP3
Duration                         : 27mn 46s
Bit rate mode                    : Constant
Bit rate                         : 64.0 Kbps
Channel(s)                       : 2 channels
Sampling rate                    : 32.0 KHz
Stream size                      : 12.7 MiB (2%)
Alignment                        : Aligned on interleaves
Interleave, duration             : 36 ms (0.87 video frame)

